<?xml version="1.0" encoding="utf-8"?>
<!-- Generator: Adobe Illustrator 19.2.0, SVG Export Plug-In . SVG Version: 6.00 Build 0)  -->
<svg version="1.1" xmlns="http://www.w3.org/2000/svg" xmlns:xlink="http://www.w3.org/1999/xlink" x="0px" y="0px"
	 viewBox="0 0 105.6 63.3" style="enable-background:new 0 0 105.6 63.3;" xml:space="preserve">
<style type="text/css">
	.st0{clip-path:url(#SVGID_2_);}
	.st1{fill:#482C18;}
	.st2{fill:#33261C;}
	.st3{fill:#FFC994;}
	.st4{fill:#FFBD76;}
</style>
<g id="Camada_1">
</g>
<g id="Camada_2">
	<g>
		<defs>
			<rect id="SVGID_1_" width="105.6" height="63.4"/>
		</defs>
		<clipPath id="SVGID_2_">
			<use xlink:href="#SVGID_1_"  style="overflow:visible;"/>
		</clipPath>
		<g class="st0">
			<g>
				<path class="st1" d="M-24.5,5.6c-3.5,0-6.4,1.2-6.4,2.6c0,2.8,0.5,6.1,1.9,9.6c7.1,17.4,43.5,30,85.4,30s78.4-12.6,85.4-30
					c1.4-3.5,1.9-6.8,1.9-9.6c0-1.4-2.9-2.6-6.4-2.6H-24.5z"/>
			</g>
			<path class="st2" d="M53.6,73.6c35.9,0,69.3-13.1,94.7-35H-41.1C-15.7,60.5,17.7,73.6,53.6,73.6z"/>
			<path class="st3" d="M-31,7.6L-31,7.6l174.7,0c0,0,0,0,0,0c0-2.2-4.4-3.9-9.8-3.9H-21.2C-26.5,3.7-30.9,5.4-31,7.6z"/>
			<g>
				<path class="st4" d="M143.7,8.2c0-1.4-2.9-2.6-6.4-2.6H-24.5c-3.5,0-6.4,1.2-6.4,2.6c0,2.3,0.4,5,1.3,7.8h172.1
					C143.4,13.2,143.7,10.5,143.7,8.2z"/>
			</g>
		</g>
	</g>
</g>
</svg>
