<?xml version="1.0" encoding="utf-8"?>
<!-- Generator: Adobe Illustrator 19.2.0, SVG Export Plug-In . SVG Version: 6.00 Build 0)  -->
<svg version="1.1" id="Camada_1" xmlns="http://www.w3.org/2000/svg" xmlns:xlink="http://www.w3.org/1999/xlink" x="0px" y="0px"
	 viewBox="0 0 105.6 63.3" style="enable-background:new 0 0 105.6 63.3;" xml:space="preserve">
<style type="text/css">
	.st0{fill:#EEEEEE;}
	.st1{fill:#DDDBDB;}
	.st2{fill:#B7B3B3;}
	.st3{fill:none;}
	.st4{fill:#CCCACA;}
	.st5{opacity:0.1;fill:#FCFCFC;}
	.st6{opacity:0.16;fill:#050505;}
	.st7{fill:#FFFAFA;}
</style>
<g>
	<path class="st0" d="M101.3,58.7H4.3c-2.4,0-4.3-1.9-4.3-4.3l0,0c0-2.4,1.9-4.3,4.3-4.3h97.1c2.4,0,4.3,1.9,4.3,4.3l0,0
		C105.6,56.8,103.7,58.7,101.3,58.7z"/>
	<rect x="18.9" y="58.7" class="st1" width="67.9" height="4.6"/>
	<rect x="18.9" y="59.2" class="st2" width="67.9" height="2.3"/>
	<g>
		<path class="st3" d="M87.3,17.8c-0.9,5.3-2.8,10.1-5.6,14.2c1.8,2.6,4.8,4.2,8.2,4.2c5.6,0,10.1-4.5,10.1-10.1
			c0-5.6-4.5-10.1-10.1-10.1c-0.8,0-1.6,0.1-2.4,0.3c0,0,0,0,0,0C87.5,16.8,87.4,17.3,87.3,17.8z"/>
		<path class="st0" d="M89.9,10.5c-0.6,0-1.3,0.1-1.9,0.1c0,0,0,0,0,0c0,0.3,0,0.6,0,0.9c0,0.2,0,0.4,0,0.6c0,0.6-0.1,1.2-0.1,1.8
			c0,0.1,0,0.1,0,0.2c-0.1,0.7-0.1,1.3-0.2,2c0,0,0,0,0,0c0,0.1,0,0.2,0,0.3c0.8-0.2,1.6-0.3,2.4-0.3c5.6,0,10.1,4.5,10.1,10.1
			c0,5.6-4.5,10.1-10.1,10.1c-3.4,0-6.4-1.7-8.2-4.2c-1.1,1.6-2.2,3.1-3.5,4.5c2.9,3.3,7.1,5.3,11.7,5.3c8.7,0,15.7-7,15.7-15.7
			C105.6,17.5,98.6,10.5,89.9,10.5z"/>
	</g>
	<g>
		<path class="st4" d="M92.4,0H52.8H13.2c0,0-6.8,37.4,25.2,50.2h14.5h14.5C99.2,37.4,92.4,0,92.4,0z M88.1,10.1
			c0,0.4,0,0.9-0.1,1.4c0,0.2,0,0.4,0,0.6c0,0.6-0.1,1.2-0.1,1.8c0,0.1,0,0.1,0,0.2c-0.1,0.7-0.1,1.3-0.2,2c0,0,0,0,0,0
			c-0.1,0.6-0.1,1.2-0.2,1.8c-2.5,15.1-13.9,26.6-28,29.3c0,0-0.1,0-0.1,0c-0.5,0.1-0.9,0.2-1.4,0.2c-0.1,0-0.2,0-0.2,0
			c-0.4,0.1-0.8,0.1-1.3,0.2c-0.1,0-0.2,0-0.3,0c-0.4,0-0.8,0.1-1.2,0.1c-0.1,0-0.2,0-0.4,0c-0.5,0-1.1,0-1.6,0s-1.1,0-1.6,0
			c-0.1,0-0.2,0-0.4,0c-0.4,0-0.8-0.1-1.2-0.1c-0.1,0-0.2,0-0.3,0c-0.4,0-0.8-0.1-1.3-0.2c-0.1,0-0.2,0-0.2,0
			c-0.5-0.1-0.9-0.1-1.4-0.2c0,0-0.1,0-0.1,0c-14.1-2.8-25.5-14.2-28-29.3c-0.1-0.6-0.2-1.2-0.2-1.8h0c0-0.1,0-0.2,0-0.3
			c-0.1-0.4-0.1-0.8-0.1-1.3c0-0.4-0.1-0.7-0.1-1.1c0-0.4-0.1-0.8-0.1-1.2c0-0.4,0-0.8-0.1-1.2c0-0.3,0-0.6,0-0.9c0-0.7,0-1.3,0-2
			c0-0.2,0-0.4,0.1-0.6h-0.1l0,0c0-2.2,1.8-3.9,4-3.9h62.7c2.2,0,4,1.7,4,3.9c0,0,0,0,0,0H88c0,0.2,0.1,0.4,0.1,0.6
			C88.1,8.8,88.1,9.5,88.1,10.1z"/>
	</g>
	<path class="st5" d="M52.8,50.2c0,0,21.2-8.1,19.4-50.2H84C84,0,88.7,41.7,52.8,50.2z"/>
	<path class="st6" d="M67.3,50.2c0,0-40.6-5.8-37.7-50.2H13.2c0,0-6.4,37.1,25.2,50.2H67.3z"/>
	<g>
		<path class="st7" d="M101.3,50.2H4.3c-2.4,0-4.3,1.9-4.3,4.3h105.6C105.6,52.1,103.7,50.2,101.3,50.2z"/>
	</g>
	<path class="st7" d="M89.9,0c0,0,9.5,29.6-22.7,50.2C67.3,50.2,93,32,86.7,0H89.9z"/>
	<g>
		<path class="st7" d="M89.9,10.5c-0.6,0-1.3,0-1.9,0.1c0,0.3,0,0.6,0,0.9c0,0.2,0,0.4,0,0.6c0,0.6-0.1,1.2-0.1,1.8
			c0,0.1,0,0.1,0,0.2c-0.1,0.7-0.1,1.3-0.2,2c0,0,0,0,0,0c0,0.1,0,0.2,0,0.3c0.8-0.2,1.6-0.3,2.4-0.3c5.6,0,10.1,4.5,10.1,10.1
			c0,2.7-1.1,5.2-2.9,7.1l3,4.8c3.3-2.9,5.4-7.1,5.4-11.8C105.6,17.5,98.6,10.5,89.9,10.5z"/>
	</g>
</g>
</svg>
