<?xml version="1.0" encoding="utf-8"?>
<!-- Generator: Adobe Illustrator 19.2.0, SVG Export Plug-In . SVG Version: 6.00 Build 0)  -->
<svg version="1.1" id="Camada_1" xmlns="http://www.w3.org/2000/svg" xmlns:xlink="http://www.w3.org/1999/xlink" x="0px" y="0px"
	 viewBox="0 0 105.6 63.3" style="enable-background:new 0 0 105.6 63.3;" xml:space="preserve">
<style type="text/css">
	.st0{fill:#FFFAFA;}
	.st1{fill:#CCCACA;}
</style>
<g>
	<g>
		<path class="st0" d="M105.6,26.2c0-8.7-7-15.7-15.7-15.7c-1.6,0-3.1,0.2-4.5,0.7l0.8,5.6c1.2-0.5,2.4-0.7,3.7-0.7
			c5.6,0,10.1,4.5,10.1,10.1c0,2.7-1.1,5.2-2.9,7.1l3,4.8C103.5,35.1,105.6,30.9,105.6,26.2z"/>
	</g>
	<path class="st1" d="M92.4,0H52.8H13.2c0,0-6.8,37.4,25.2,50.2h14.5h14.5C99.2,37.4,92.4,0,92.4,0z"/>
</g>
</svg>
