<?xml version="1.0" encoding="utf-8"?>
<!-- Generator: Adobe Illustrator 19.2.0, SVG Export Plug-In . SVG Version: 6.00 Build 0)  -->
<svg version="1.1" id="Camada_1" xmlns="http://www.w3.org/2000/svg" xmlns:xlink="http://www.w3.org/1999/xlink" x="0px" y="0px"
	 viewBox="0 0 105.6 63.3" style="enable-background:new 0 0 105.6 63.3;" xml:space="preserve">
<style type="text/css">
	.st0{fill:#EEEEEE;}
	.st1{fill:#DDDBDB;}
	.st2{fill:#B7B3B3;}
	.st3{fill:#FFFAFA;}
	.st4{fill:#CCCACA;}
	.st5{fill:#482C18;}
	.st6{fill:#33261C;}
	.st7{fill:#FFC994;}
	.st8{opacity:0.1;fill:#FCFCFC;}
	.st9{opacity:0.16;fill:#050505;}
	.st10{fill:#FFBD76;}
</style>
<g>
	<path class="st0" d="M101.3,58.7H4.3c-2.4,0-4.3-1.9-4.3-4.3l0,0c0-2.4,1.9-4.3,4.3-4.3h97.1c2.4,0,4.3,1.9,4.3,4.3l0,0
		C105.6,56.8,103.7,58.7,101.3,58.7z"/>
	<rect x="18.9" y="58.7" class="st1" width="67.9" height="4.6"/>
	<rect x="18.9" y="59.2" class="st2" width="67.9" height="2.3"/>
	<g>
		<path class="st0" d="M89.9,10.5c-8.7,0-15.7,7-15.7,15.7c0,8.7,7,15.7,15.7,15.7c8.7,0,15.7-7,15.7-15.7
			C105.6,17.5,98.6,10.5,89.9,10.5z M89.9,36.3c-5.6,0-10.1-4.5-10.1-10.1s4.5-10.1,10.1-10.1c5.6,0,10.1,4.5,10.1,10.1
			S95.5,36.3,89.9,36.3z"/>
	</g>
	<g>
		<path class="st3" d="M105.6,26.2c0-8.7-7-15.7-15.7-15.7c-1.6,0-3.1,0.2-4.5,0.7l0.8,5.6c1.2-0.5,2.4-0.7,3.7-0.7
			c5.6,0,10.1,4.5,10.1,10.1c0,2.7-1.1,5.2-2.9,7.1l3,4.8C103.5,35.1,105.6,30.9,105.6,26.2z"/>
	</g>
	<path class="st4" d="M92.4,0H52.8H13.2c0,0-6.8,37.4,25.2,50.2h14.5h14.5C99.2,37.4,92.4,0,92.4,0z"/>
	<g>
		<path class="st5" d="M20.1,5.6c-1.4,0-2.6,1.2-2.6,2.6c0,2.8,0.2,6.1,0.8,9.6c2.9,17.4,17.6,30,34.5,30s31.7-12.6,34.5-30
			c0.6-3.5,0.8-6.8,0.8-9.6c0-1.4-1.2-2.6-2.6-2.6H20.1z"/>
	</g>
	<path class="st6" d="M52.8,47.8c8.8,0,17-3.4,23.3-9.1H29.5C35.8,44.4,44,47.8,52.8,47.8z"/>
	<path class="st7" d="M17.5,7.6L17.5,7.6l70.6,0c0,0,0,0,0,0c0-2.2-1.8-3.9-4-3.9H21.5C19.3,3.7,17.5,5.4,17.5,7.6z"/>
	<path class="st8" d="M52.8,50.2c0,0,21.2-8.1,19.4-50.2H84C84,0,88.7,41.7,52.8,50.2z"/>
	<path class="st9" d="M67.3,50.2c0,0-40.6-5.8-37.7-50.2H13.2c0,0-6.4,37.1,25.2,50.2H67.3z"/>
	<g>
		<path class="st3" d="M101.3,50.2H4.3c-2.4,0-4.3,1.9-4.3,4.3h105.6C105.6,52.1,103.7,50.2,101.3,50.2z"/>
	</g>
	<path class="st3" d="M89.9,0c0,0,9.5,29.6-22.7,50.2C67.3,50.2,93,32,86.7,0H89.9z"/>
	<g>
		<path class="st10" d="M88.1,8.2c0-1.4-1.2-2.6-2.6-2.6H20.1c-1.4,0-2.6,1.2-2.6,2.6c0,2.3,0.1,5,0.5,7.8h69.5
			C87.9,13.2,88.1,10.5,88.1,8.2z"/>
	</g>
</g>
</svg>
