<?xml version="1.0" encoding="utf-8"?>
<!-- Generator: Adobe Illustrator 19.2.0, SVG Export Plug-In . SVG Version: 6.00 Build 0)  -->
<svg version="1.1" id="Camada_3" xmlns="http://www.w3.org/2000/svg" xmlns:xlink="http://www.w3.org/1999/xlink" x="0px" y="0px"
	 viewBox="0 0 441.6 114.2" style="enable-background:new 0 0 441.6 114.2;" xml:space="preserve">
<style type="text/css">
	.st0{fill:#DCCCAA;}
	.st1{fill:#ECC87A;}
</style>
<g>
	<g>
		<path class="st0" d="M215.7,24.6c-1.3-4-3.4-7.1-6.4-9.3c-2.9-2.2-6.4-3.3-10.6-3.3c-6.6,0-12,2.2-16,6.6
			c-4.1,4.4-6.1,10.1-6.1,17.3c0,7.1,2,12.9,6.1,17.2c4.1,4.4,9.4,6.5,16,6.5c4.1,0,7.6-0.9,10.4-2.8c2.8-1.9,5.2-4.9,7.3-9.1h11.5
			c-1.8,7.1-5.3,12.8-10.6,17S205.9,71,198.7,71c-9.9,0-18.1-3.3-24.6-10s-9.7-15-9.7-25.1c0-10.3,3.2-18.7,9.5-25.3
			s14.4-9.8,24.1-9.8c3.9,0,7.4,0.6,10.5,1.8s5.5,2.9,7.4,5.1L215.7,2h9.8v22.6H215.7z"/>
		<path class="st0" d="M198.8,72c-10.2,0-18.7-3.5-25.3-10.3s-10-15.5-10-25.8c0-10.5,3.3-19.3,9.8-26C179.7,3.1,188-0.3,198-0.3
			c4,0,7.7,0.6,10.8,1.9c2.3,0.9,4.3,2.1,6,3.5L214.7,1h11.9v24.6H215l-0.2-0.7c-1.2-3.8-3.3-6.8-6-8.8s-6.1-3.1-10-3.1
			c-6.3,0-11.4,2.1-15.3,6.2c-3.9,4.2-5.8,9.7-5.8,16.6c0,6.8,2,12.4,5.8,16.5s9,6.2,15.3,6.2c3.9,0,7.2-0.9,9.8-2.7
			c2.7-1.8,5-4.7,6.9-8.7l0.3-0.6h13.4l-0.3,1.2c-1.8,7.3-5.5,13.2-10.9,17.5C212.6,69.8,206.1,72,198.8,72z M198,1.7
			c-9.4,0-17.3,3.2-23.4,9.5c-6.1,6.3-9.2,14.6-9.2,24.6c0,9.8,3.2,18,9.4,24.4c6.3,6.4,14.3,9.7,23.9,9.7c6.9,0,12.9-2,17.9-6.1
			c4.7-3.8,8.1-8.9,9.9-15.2H217c-2,4-4.5,7-7.3,8.9c-3,2-6.7,3-11,3c-6.9,0-12.5-2.3-16.7-6.9c-4.2-4.5-6.4-10.5-6.4-17.9
			s2.1-13.4,6.4-18c4.2-4.6,9.9-6.9,16.7-6.9c4.3,0,8.1,1.2,11.2,3.5c2.9,2.2,5.1,5.2,6.5,9.1h8.1V3h-7.8l0.3,7.5l-1.9-2.2
			c-1.8-2.1-4.1-3.7-7-4.8C205.2,2.3,201.8,1.7,198,1.7z"/>
	</g>
	<g>
		<path class="st0" d="M232.8,47.8c0-6.5,2.3-11.9,6.8-16.3s10.1-6.6,16.8-6.6c6.7,0,12.3,2.2,16.8,6.6s6.7,9.8,6.7,16.3
			s-2.2,11.9-6.7,16.2s-10.1,6.6-16.8,6.6c-6.7,0-12.3-2.2-16.8-6.6S232.8,54.2,232.8,47.8z M243.8,47.8c0,3.8,1.2,7,3.6,9.6
			s5.4,3.9,8.9,3.9c3.5,0,6.5-1.3,8.9-3.8c2.4-2.6,3.6-5.8,3.6-9.6c0-3.9-1.2-7.2-3.6-9.7s-5.4-3.8-8.9-3.8c-3.6,0-6.6,1.3-9,3.8
			C245,40.6,243.8,43.8,243.8,47.8z"/>
		<path class="st0" d="M256.4,71.5c-6.9,0-12.8-2.3-17.5-6.8s-7.1-10.3-7.1-17s2.4-12.5,7.1-17c4.7-4.6,10.6-6.9,17.5-6.9
			s12.8,2.3,17.5,6.9s7,10.3,7,17s-2.4,12.4-7,16.9C269.3,69.2,263.4,71.5,256.4,71.5z M256.4,25.8c-6.4,0-11.8,2.1-16.1,6.3
			s-6.5,9.4-6.5,15.6c0,6.1,2.2,11.4,6.5,15.5c4.3,4.2,9.7,6.3,16.1,6.3c6.4,0,11.9-2.1,16.1-6.3c4.3-4.2,6.4-9.4,6.4-15.5
			c0-6.2-2.2-11.4-6.4-15.6C268.2,28,262.8,25.8,256.4,25.8z M256.4,62.2c-3.8,0-7.1-1.4-9.7-4.2c-2.6-2.7-3.9-6.2-3.9-10.3
			c0-4.2,1.3-7.7,3.9-10.4c2.6-2.8,5.8-4.1,9.7-4.1c3.8,0,7.1,1.4,9.7,4.1c2.6,2.7,3.8,6.2,3.8,10.4c0,4.1-1.3,7.6-3.9,10.3
			C263.5,60.8,260.2,62.2,256.4,62.2z M256.4,35.2c-3.3,0-6,1.1-8.2,3.5s-3.3,5.3-3.3,9c0,3.6,1.1,6.5,3.4,8.9
			c2.2,2.4,4.9,3.5,8.2,3.5c3.3,0,6-1.1,8.2-3.5s3.3-5.3,3.3-8.9c0-3.7-1.1-6.7-3.3-9C262.4,36.4,259.7,35.2,256.4,35.2z"/>
	</g>
	<g>
		<path class="st0" d="M308.9,69.6h-25v-9.1h7.1V35.1h-7.1V26h7.1v-5.9c0-7.7,1-12.6,3.1-14.8S300.3,2,306.6,2c0.7,0,1.2,0,1.6,0
			s0.8,0.1,1.3,0.1v8.6H307c-2.2,0-3.7,0.4-4.4,1.2c-0.8,0.8-1.2,2.7-1.2,5.7v3V26h8v9.1h-8v25.5h7.4v9H308.9z"/>
		<path class="st0" d="M309.9,70.6h-27V59.5h7.1V36.1h-7.1V25h7.1v-4.9c0-8,1.1-13.1,3.4-15.5S300,1,306.6,1c0.7,0,1.2,0,1.6,0
			c0.5,0,0.9,0.1,1.4,0.1l0.9,0.1v10.5H307c-2.4,0-3.3,0.5-3.7,0.9c-0.3,0.3-0.9,1.3-0.9,5V25h8v11.1h-8v23.5h7.4v11H309.9z
			 M284.8,68.6h23v-7.1h-7.4V34.1h8V27h-8v-9.4c0-3.3,0.5-5.4,1.5-6.4s2.7-1.5,5.1-1.5h1.4V3c-0.1,0-0.2,0-0.3,0c-0.4,0-0.9,0-1.6,0
			c-5.9,0-9.9,1-11.8,3c-1.3,1.4-2.8,4.9-2.8,14.1V27h-7.1v7.1h7.1v27.5h-7.1L284.8,68.6L284.8,68.6z"/>
	</g>
	<g>
		<path class="st0" d="M338.3,69.6h-25v-9.1h7.1V35.1h-7.1V26h7.1v-5.9c0-7.7,1-12.6,3.1-14.8S329.7,2,336,2c0.7,0,1.2,0,1.6,0
			s0.8,0.1,1.3,0.1v8.6h-2.4c-2.2,0-3.7,0.4-4.4,1.2c-0.8,0.8-1.2,2.7-1.2,5.7v3V26h8v9.1h-8v25.5h7.4V69.6z"/>
		<path class="st0" d="M339.3,70.6h-27V59.5h7.1V36.1h-7.1V25h7.1v-4.9c0-8,1.1-13.1,3.4-15.5C325,2.2,329.3,1,335.9,1
			c0.7,0,1.2,0,1.6,0c0.5,0,0.9,0.1,1.4,0.1l0.9,0.1v10.5h-3.4c-2.4,0-3.3,0.5-3.7,0.9c-0.3,0.3-0.9,1.3-0.9,5V25h8v11.1h-8v23.5
			h7.4v11H339.3z M314.3,68.6h23v-7.1h-7.4V34.1h8V27h-8v-9.4c0-3.3,0.5-5.4,1.5-6.4s2.7-1.5,5.1-1.5h1.4V3c-0.1,0-0.2,0-0.3,0
			c-0.4,0-0.9,0-1.6,0c-5.9,0-9.9,1-11.8,3c-1.3,1.4-2.8,4.9-2.8,14.1V27h-7.1v7.1h7.1v27.5h-7.1L314.3,68.6L314.3,68.6z"/>
	</g>
	<g>
		<path class="st0" d="M388.1,56.7c-1.3,4.5-3.7,7.9-7.5,10.4c-3.7,2.4-8.4,3.7-14,3.7c-7.1,0-12.8-2.1-17.1-6.3
			c-4.3-4.2-6.5-9.8-6.5-16.6c0-6.7,2.2-12.2,6.6-16.5s10-6.4,16.9-6.4c6.8,0,12.3,2.3,16.5,6.8s6.2,10.6,6.2,18.2v1H354
			c0.4,3.4,1.7,5.9,3.9,7.7c2.2,1.8,5.2,2.7,9,2.7c2.4,0,4.5-0.4,6.4-1.2s3.3-2,4.3-3.5H388.1z M354,43.4h24.7
			c-0.9-3-2.3-5.3-4.4-6.9c-2.1-1.6-4.7-2.3-7.8-2.3c-3.2,0-5.9,0.8-8.2,2.4C356.2,38.2,354.7,40.5,354,43.4z"/>
		<path class="st0" d="M366.6,71.8c-7.3,0-13.3-2.2-17.8-6.6S342,55,342,47.9c0-6.9,2.3-12.7,6.9-17.2s10.5-6.7,17.6-6.7
			s12.9,2.4,17.2,7.1c4.3,4.7,6.5,11.1,6.5,18.9v2h-35.1c0.5,2.6,1.6,4.5,3.4,6c2,1.6,4.9,2.5,8.4,2.5c2.2,0,4.2-0.4,6-1.2
			c1.7-0.7,3-1.8,3.9-3.1l0.3-0.4h12.3L389,57c-1.3,4.7-4,8.4-7.9,10.9C377.3,70.5,372.4,71.8,366.6,71.8z M366.5,25.9
			c-6.6,0-12,2.1-16.2,6.2s-6.3,9.4-6.3,15.8c0,6.5,2.1,11.9,6.2,15.9s9.6,6,16.4,6c5.4,0,9.9-1.2,13.4-3.5c3.1-2.1,5.4-4.9,6.7-8.5
			h-8.6c-1.1,1.4-2.6,2.6-4.5,3.4c-2,0.9-4.3,1.3-6.8,1.3c-4,0-7.3-1-9.7-2.9c-2.4-2-3.9-4.8-4.3-8.4l-0.1-1.1h35.4V50
			c0-7.3-2-13.2-6-17.5C378.3,28.1,373,25.9,366.5,25.9z M380,44.4h-27.3l0.3-1.2c0.8-3.1,2.4-5.6,4.8-7.4c2.4-1.7,5.3-2.6,8.8-2.6
			c3.3,0,6.1,0.9,8.4,2.5c2.2,1.7,3.8,4.2,4.8,7.4L380,44.4z M355.3,42.4h22c-0.8-2.2-2-3.9-3.6-5.1c-1.9-1.4-4.3-2.1-7.2-2.1
			c-3,0-5.5,0.8-7.6,2.2C357.2,38.6,356,40.3,355.3,42.4z"/>
	</g>
	<g>
		<path class="st0" d="M438.6,56.7c-1.3,4.5-3.7,7.9-7.5,10.4c-3.7,2.4-8.4,3.7-14,3.7c-7.1,0-12.8-2.1-17.1-6.3
			c-4.3-4.2-6.5-9.8-6.5-16.6c0-6.7,2.2-12.2,6.6-16.5s10-6.4,16.9-6.4c6.8,0,12.3,2.3,16.5,6.8s6.2,10.6,6.2,18.2v1h-35.3
			c0.4,3.4,1.7,5.9,3.9,7.7c2.2,1.8,5.2,2.7,9,2.7c2.4,0,4.5-0.4,6.4-1.2s3.3-2,4.3-3.5H438.6z M404.6,43.4h24.7
			c-0.9-3-2.3-5.3-4.4-6.9c-2.1-1.6-4.7-2.3-7.8-2.3c-3.2,0-5.9,0.8-8.2,2.4C406.7,38.2,405.3,40.5,404.6,43.4z"/>
		<path class="st0" d="M417.2,71.8c-7.3,0-13.3-2.2-17.8-6.6s-6.8-10.2-6.8-17.3c0-6.9,2.3-12.7,6.9-17.2S410,24,417.1,24
			s12.9,2.4,17.2,7.1c4.3,4.7,6.5,11.1,6.5,18.9v2h-35.1c0.5,2.6,1.6,4.5,3.4,6c2,1.6,4.9,2.5,8.4,2.5c2.2,0,4.2-0.4,6-1.2
			c1.7-0.7,3-1.8,3.9-3.1l0.3-0.4H440l-0.4,1.3c-1.3,4.7-4,8.4-7.9,10.9C427.8,70.5,423,71.8,417.2,71.8z M417.1,25.9
			c-6.6,0-12,2.1-16.2,6.2s-6.3,9.4-6.3,15.8c0,6.5,2.1,11.9,6.2,15.9s9.6,6,16.4,6c5.4,0,9.9-1.2,13.4-3.5c3.1-2.1,5.4-4.9,6.7-8.5
			h-8.6c-1.1,1.4-2.6,2.6-4.5,3.4c-2,0.9-4.3,1.3-6.8,1.3c-4,0-7.3-1-9.7-2.9c-2.4-2-3.9-4.8-4.3-8.4l-0.1-1.1h35.4V50
			c0-7.3-2-13.2-6-17.5C428.9,28.1,423.6,25.9,417.1,25.9z M430.6,44.4h-27.3l0.3-1.2c0.8-3.1,2.4-5.6,4.8-7.4
			c2.4-1.7,5.3-2.6,8.8-2.6c3.3,0,6.1,0.9,8.4,2.5c2.2,1.7,3.8,4.2,4.8,7.4L430.6,44.4z M405.9,42.4h22c-0.8-2.2-2-3.9-3.6-5.1
			c-1.9-1.4-4.3-2.1-7.2-2.1c-3,0-5.5,0.8-7.6,2.2C407.8,38.6,406.6,40.3,405.9,42.4z"/>
	</g>
</g>
<path class="st1" d="M123.2,114.2c-1.8,0-3.3-0.4-4.6-0.9c-2.6-1-10.5-5.5-5.6-20.2c2.4-7.1,7.4-15.3,14.2-23.2
	c-5-0.8-7.7-3.4-9.1-5.5c-0.9-1.3-1.5-2.9-1.9-4.5c-3.2,4.7-6.8,8.3-10.8,9.8c-3.4,1.2-6.8,0.9-9.9-1c-8.3-5-4.4-14-1.6-20.5
	c3.7-8.6,4.3-11.6,0.5-13.9c-0.7-0.4-2.7-1.6-7.1,1.1c-2.7,1.7-5.4,4.3-7.9,7.4c0.1,1.8,0,3.7-0.2,5.7c-1,9.1-6,21.8-13.7,21.8
	c-0.1,0-0.2,0-0.3,0c-2.4-0.1-4.4-1.6-5.1-4c-1.7-5.3,3.6-16.8,10.4-26c-1-5.2-3.8-6.3-5.8-6.7c-2.5-0.5-6.1,0.9-9.9,3.7
	c0.7,8.5-2,17.9-5.5,24.2c-4,7.2-9,10.4-13.7,8.9c-4-1.3-7.6-5.4-5.7-13.1c1.6-6.5,7-15,13.7-21.7c0.5-0.5,1.2-1.1,1.8-1.7
	c-0.6-1.8-1.5-3.2-2.8-4.3c-4.4-3.9-10.3-5.2-16-3.7C18.7,28,12,35.2,8.4,45.8c-0.8,2.3-3.2,3.5-5.5,2.7s-3.5-3.2-2.7-5.5
	c4.6-13.3,13.4-22.6,24.1-25.5c8.5-2.3,17.3-0.3,23.9,5.5c1.8,1.5,3.1,3.4,4.2,5.4c4.2-2.5,9-4.3,13.8-3.4c4.8,0.9,8.4,3.6,10.6,7.7
	c1-1,2-1.9,3-2.7c9.1-7.2,15.8-5.1,19-3.2c10.9,6.6,6.2,17.5,3,24.7c-2.9,6.8-3.3,8.8-1.8,9.7c0.8,0.5,1.5,0.6,2.4,0.3
	c5.4-1.9,12.6-14.4,18.4-31.9c0.7-2.2,3.1-3.5,5.4-2.8c2.2,0.7,3.5,3.1,2.8,5.4c-2.4,7.9-6.8,22.6-3.6,27.4c0.4,0.7,1.3,1.5,3.5,1.8
	c11,1.2,17.6-16,19.8-31.2c0.3-2.1,2.1-3.7,4.2-3.7c2.1-0.1,4,1.5,4.3,3.6c0.7,3.9,0.6,9.8-0.3,16.7c12.6-6.1,26.8-8.8,41-4.9
	c2.3,0.6,3.7,3,3,5.3c-0.6,2.3-3,3.7-5.3,3c-13.9-3.8-28.1,0-40.3,7.2c-3.9,20.4-12.2,44.4-22.9,53.1
	C129.1,113.3,125.9,114.2,123.2,114.2 M144.8,64.8c-11.7,9.6-20.4,21.7-23.6,31c-0.6,1.9-2.5,8.2,0.6,9.4c0.7,0.3,2.3,0.9,5.1-1.4
	c5.8-4.7,12-17.7,16.7-34.6C144.1,67.7,144.5,66.3,144.8,64.8 M45.7,46c-0.6,0.7-1.2,1.5-1.7,2.2c-5.5,7.5-6.3,12.4-6.1,13.7
	c1.8-1,5.6-6.5,7.5-14.6C45.5,46.9,45.6,46.5,45.7,46"/>
</svg>
