<?xml version="1.0" encoding="utf-8"?>
<!-- Generator: Adobe Illustrator 19.2.0, SVG Export Plug-In . SVG Version: 6.00 Build 0)  -->
<svg version="1.1" id="Camada_1" xmlns="http://www.w3.org/2000/svg" xmlns:xlink="http://www.w3.org/1999/xlink" x="0px" y="0px"
	 viewBox="0 0 156.7 227.3" style="enable-background:new 0 0 156.7 227.3;" xml:space="preserve">
<style type="text/css">
	.st0{fill:#794C27;}
	.st1{fill:#5E3921;}
	.st2{fill:#564239;}
	.st3{fill:#F4E9D7;}
	.st4{fill:#997B53;}
	.st5{fill:#49372E;}
</style>
<g>
	<g>
		<polygon class="st0" points="78.7,5.2 24.6,5.2 15.4,28.7 78.9,28.7 		"/>
		<path class="st1" d="M78.9,29.1H15.4c-0.1,0-0.2-0.1-0.3-0.2c-0.1-0.1-0.1-0.2,0-0.4L24.3,5c0.1-0.1,0.2-0.2,0.4-0.2h54.1
			c0.2,0,0.4,0.2,0.4,0.4l0.2,23.5c0,0.1,0,0.2-0.1,0.3C79.1,29.1,79,29.1,78.9,29.1z M16,28.3h62.5L78.3,5.6H24.9L16,28.3z"/>
	</g>
	<g>
		<polygon class="st0" points="78,5.2 132.1,5.2 141.3,28.7 77.8,28.7 		"/>
		<path class="st1" d="M141.3,29.1C141.3,29.1,141.3,29.1,141.3,29.1H77.8c-0.1,0-0.2,0-0.3-0.1c-0.1-0.1-0.1-0.2-0.1-0.3l0.2-23.5
			c0-0.2,0.2-0.4,0.4-0.4h54.1c0.2,0,0.3,0.1,0.4,0.2l9.2,23.4c0.1,0.1,0.1,0.1,0.1,0.2C141.7,28.9,141.5,29.1,141.3,29.1z
			 M78.2,28.3h62.5l-8.9-22.8H78.4L78.2,28.3z"/>
	</g>
	<g>
		<polygon class="st2" points="132.1,5.2 78.7,5.2 60.5,5.2 24.6,5.2 15.4,28.7 60.4,28.7 78.9,28.7 141.3,28.7 		"/>
		<path class="st2" d="M141.3,33.9H15.4c-1.7,0-3.3-0.8-4.3-2.3c-1-1.4-1.2-3.2-0.5-4.8l9.2-23.5c0.8-2,2.7-3.3,4.8-3.3h107.4
			c2.1,0,4.1,1.3,4.8,3.3l9.2,23.5c0.6,1.6,0.4,3.4-0.5,4.8C144.6,33.1,143,33.9,141.3,33.9z M23,23.5h110.7l-5.2-13.2H28.2L23,23.5
			z"/>
	</g>
	<g>
		<polygon class="st3" points="78.9,48.2 77.8,48.2 15.4,48.2 42,222.1 77.8,222.1 78.9,222.1 114.7,222.1 141.3,48.2 		"/>
		<path class="st3" d="M114.7,227.3H42c-2.6,0-4.7-1.9-5.1-4.4L10.3,49c-0.2-1.5,0.2-3,1.2-4.2c1-1.1,2.4-1.8,3.9-1.8h125.9
			c1.5,0,2.9,0.7,3.9,1.8c1,1.1,1.4,2.7,1.2,4.2l-26.6,174C119.4,225.5,117.2,227.3,114.7,227.3z M46.5,217h63.7l25-163.6H21.5
			L46.5,217z"/>
	</g>
	<g>
		<polygon class="st4" points="130,164.2 27.7,164.2 18.5,89.1 139.2,89.1 		"/>
		<path class="st4" d="M130,170.1H27.7c-2.9,0-5.4-2.2-5.8-5.1l-9.2-75.1c-0.2-1.7,0.3-3.3,1.4-4.6c1.1-1.3,2.7-2,4.4-2h120.8
			c1.7,0,3.3,0.7,4.4,2c1.1,1.3,1.6,2.9,1.4,4.6l-9.2,75.1C135.5,167.9,133,170.1,130,170.1z M32.9,158.4h92l7.8-63.5H25.1
			L32.9,158.4z"/>
	</g>
	<g>
		<g>
			<g>
				<polygon class="st5" points="78.9,28.7 77.8,28.7 5.2,28.7 5.2,48.2 77.8,48.2 78.9,48.2 151.5,48.2 151.5,28.7 				"/>
			</g>
		</g>
		<g>
			<g>
				<polygon class="st5" points="78.9,28.7 77.8,28.7 5.2,28.7 5.2,48.2 77.8,48.2 78.9,48.2 151.5,48.2 151.5,28.7 				"/>
			</g>
		</g>
		<g>
			<g>
				<path class="st5" d="M151.5,53.4H5.2C2.3,53.4,0,51,0,48.2V28.7c0-2.9,2.3-5.2,5.2-5.2h146.3c2.9,0,5.2,2.3,5.2,5.2v19.4
					C156.7,51,154.4,53.4,151.5,53.4z M10.4,43h136v-9.1h-136V43z"/>
			</g>
		</g>
	</g>
</g>
</svg>
